<svg width="22" height="25" viewBox="0 0 22 25" fill="none" xmlns="http://www.w3.org/2000/svg">
<path d="M14.4219 11.9395C14.4219 11.1895 13.8594 10.5801 13.2031 10.5801C12.5 10.5801 11.9375 11.1895 11.9375 11.9395C11.9375 12.6426 12.5 13.252 13.2031 13.252C13.8594 13.252 14.4219 12.6426 14.4219 11.9395ZM8.79688 10.5801C8.14062 10.5801 7.57812 11.1895 7.57812 11.9395C7.57812 12.6426 8.14062 13.252 8.79688 13.252C9.5 13.252 10.0156 12.6426 10.0156 11.9395C10.0625 11.1895 9.5 10.5801 8.79688 10.5801ZM21.5 2.98633C21.5 1.62695 20.375 0.501953 19.0156 0.501953H2.9375C1.57812 0.501953 0.5 1.62695 0.5 2.98633V19.2051C0.5 20.6113 1.57812 21.6895 2.9375 21.6895H16.5312L15.9219 19.4863C19.4375 22.7207 18.4531 21.877 21.5 24.502V2.98633ZM18.0781 14.377C18.0781 14.377 17.0469 16.1113 14.375 16.2051C14.375 16.2051 13.9531 15.6895 13.5781 15.2207C15.1719 14.7988 15.7812 13.8145 15.7812 13.8145C15.2656 14.1426 14.7969 14.3301 14.375 14.5176C11.7969 15.5957 8.9375 15.2207 6.875 14.0957C6.875 14.0488 6.59375 13.9082 6.40625 13.7676C6.40625 13.7676 6.96875 14.752 8.51562 15.2207C8.14062 15.6426 7.71875 16.2051 7.71875 16.2051C5.04688 16.1113 4.0625 14.377 4.0625 14.377C4.0625 10.4863 5.75 7.39258 5.75 7.39258C7.48438 6.08008 9.125 6.12695 9.125 6.12695L9.26562 6.26758C7.10938 6.87695 6.125 7.81445 6.125 7.81445C6.125 7.81445 6.35938 7.67383 6.82812 7.48633C9.59375 6.26758 12.9219 6.26758 15.7812 7.81445C15.7812 7.81445 14.8438 6.92383 12.7812 6.31445L12.9688 6.12695C12.9688 6.12695 14.6094 6.08008 16.3438 7.39258C16.3438 7.39258 18.0781 10.4863 18.0781 14.377Z" fill="#F86464"/>
</svg>
