<svg width="22" height="22" viewBox="0 0 22 22" fill="none" xmlns="http://www.w3.org/2000/svg">
<path d="M11 5.11133C8 5.11133 5.60938 7.54883 5.60938 10.502C5.60938 13.502 8 15.8926 11 15.8926C13.9531 15.8926 16.3906 13.502 16.3906 10.502C16.3906 7.54883 13.9531 5.11133 11 5.11133ZM11 14.0176C9.07812 14.0176 7.48438 12.4707 7.48438 10.502C7.48438 8.58008 9.03125 7.0332 11 7.0332C12.9219 7.0332 14.4688 8.58008 14.4688 10.502C14.4688 12.4707 12.9219 14.0176 11 14.0176ZM17.8438 4.92383C17.8438 4.2207 17.2812 3.6582 16.5781 3.6582C15.875 3.6582 15.3125 4.2207 15.3125 4.92383C15.3125 5.62695 15.875 6.18945 16.5781 6.18945C17.2812 6.18945 17.8438 5.62695 17.8438 4.92383ZM21.4062 6.18945C21.3125 4.50195 20.9375 3.00195 19.7188 1.7832C18.5 0.564453 17 0.189453 15.3125 0.0957031C13.5781 0.00195312 8.375 0.00195312 6.64062 0.0957031C4.95312 0.189453 3.5 0.564453 2.23438 1.7832C1.01562 3.00195 0.640625 4.50195 0.546875 6.18945C0.453125 7.92383 0.453125 13.127 0.546875 14.8613C0.640625 16.5488 1.01562 18.002 2.23438 19.2676C3.5 20.4863 4.95312 20.8613 6.64062 20.9551C8.375 21.0488 13.5781 21.0488 15.3125 20.9551C17 20.8613 18.5 20.4863 19.7188 19.2676C20.9375 18.002 21.3125 16.5488 21.4062 14.8613C21.5 13.127 21.5 7.92383 21.4062 6.18945ZM19.1562 16.6895C18.8281 17.627 18.0781 18.3301 17.1875 18.7051C15.7812 19.2676 12.5 19.127 11 19.127C9.45312 19.127 6.17188 19.2676 4.8125 18.7051C3.875 18.3301 3.17188 17.627 2.79688 16.6895C2.23438 15.3301 2.375 12.0488 2.375 10.502C2.375 9.00195 2.23438 5.7207 2.79688 4.31445C3.17188 3.42383 3.875 2.7207 4.8125 2.3457C6.17188 1.7832 9.45312 1.92383 11 1.92383C12.5 1.92383 15.7812 1.7832 17.1875 2.3457C18.0781 2.67383 18.7812 3.42383 19.1562 4.31445C19.7188 5.7207 19.5781 9.00195 19.5781 10.502C19.5781 12.0488 19.7188 15.3301 19.1562 16.6895Z" fill="#F86464"/>
</svg>
