<svg width="296" height="319" viewBox="0 0 296 319" fill="none" xmlns="http://www.w3.org/2000/svg">
<g filter="url(#filter0_d_301_1471)">
<mask id="path-1-inside-1_301_1471" fill="white">
<path d="M143.541 9.84698C146.3 8.30101 149.7 8.30101 152.459 9.84698L197.606 35.1434C200.366 36.6894 202.066 39.5468 202.066 42.6391V93.231C202.066 96.3233 200.366 99.1807 197.606 100.727L152.459 126.023C149.7 127.569 146.3 127.569 143.541 126.023L98.3936 100.727C95.6343 99.1807 93.9344 96.3233 93.9344 93.231V42.6391C93.9344 39.5468 95.6343 36.6894 98.3936 35.1434L143.541 9.84698Z"/>
<path d="M143.541 185.115C146.3 183.569 149.7 183.569 152.459 185.115L197.606 210.411C200.366 211.957 202.066 214.815 202.066 217.907V268.499C202.066 271.591 200.366 274.448 197.606 275.995L152.459 301.291C149.7 302.837 146.3 302.837 143.541 301.291L98.3936 275.995C95.6343 274.448 93.9344 271.591 93.9344 268.499V217.907C93.9344 214.815 95.6343 211.957 98.3936 210.411L143.541 185.115Z"/>
<path d="M225.476 54.7458C228.235 53.1998 231.634 53.1998 234.393 54.7458L279.541 80.0422C282.3 81.5883 284 84.4456 284 87.5379V138.13C284 141.222 282.3 144.08 279.541 145.626L234.393 170.922C231.634 172.468 228.235 172.468 225.476 170.922L180.328 145.626C177.569 144.08 175.869 141.222 175.869 138.13V87.5379C175.869 84.4456 177.569 81.5883 180.328 80.0422L225.476 54.7458Z"/>
<path d="M61.6067 54.7458C64.3659 53.1998 67.7653 53.1998 70.5244 54.7458L115.672 80.0422C118.431 81.5883 120.131 84.4456 120.131 87.5379V138.13C120.131 141.222 118.431 144.08 115.672 145.626L70.5244 170.922C67.7653 172.468 64.3659 172.468 61.6067 170.922L16.4592 145.626C13.6998 144.08 12 141.222 12 138.13V87.5379C12 84.4456 13.6998 81.5883 16.4592 80.0422L61.6067 54.7458Z"/>
<path d="M225.476 145.084C228.235 143.538 231.634 143.538 234.393 145.084L279.541 170.381C282.3 171.927 284 174.784 284 177.877V228.468C284 231.561 282.3 234.418 279.541 235.964L234.393 261.261C231.634 262.807 228.235 262.807 225.476 261.261L180.328 235.964C177.569 234.418 175.869 231.561 175.869 228.468V177.877C175.869 174.784 177.569 171.927 180.328 170.381L225.476 145.084Z"/>
<path d="M61.6067 145.084C64.3659 143.538 67.7653 143.538 70.5244 145.084L115.672 170.381C118.431 171.927 120.131 174.784 120.131 177.877V228.468C120.131 231.561 118.431 234.418 115.672 235.964L70.5244 261.261C67.7653 262.807 64.3659 262.807 61.6067 261.261L16.4592 235.964C13.6998 234.418 12 231.561 12 228.468V177.877C12 174.784 13.6998 171.927 16.4592 170.381L61.6067 145.084Z"/>
</mask>
<path d="M143.541 9.84698C146.3 8.30101 149.7 8.30101 152.459 9.84698L197.606 35.1434C200.366 36.6894 202.066 39.5468 202.066 42.6391V93.231C202.066 96.3233 200.366 99.1807 197.606 100.727L152.459 126.023C149.7 127.569 146.3 127.569 143.541 126.023L98.3936 100.727C95.6343 99.1807 93.9344 96.3233 93.9344 93.231V42.6391C93.9344 39.5468 95.6343 36.6894 98.3936 35.1434L143.541 9.84698Z" fill="#F86464"/>
<path d="M143.541 185.115C146.3 183.569 149.7 183.569 152.459 185.115L197.606 210.411C200.366 211.957 202.066 214.815 202.066 217.907V268.499C202.066 271.591 200.366 274.448 197.606 275.995L152.459 301.291C149.7 302.837 146.3 302.837 143.541 301.291L98.3936 275.995C95.6343 274.448 93.9344 271.591 93.9344 268.499V217.907C93.9344 214.815 95.6343 211.957 98.3936 210.411L143.541 185.115Z" fill="#F86464"/>
<path d="M225.476 54.7458C228.235 53.1998 231.634 53.1998 234.393 54.7458L279.541 80.0422C282.3 81.5883 284 84.4456 284 87.5379V138.13C284 141.222 282.3 144.08 279.541 145.626L234.393 170.922C231.634 172.468 228.235 172.468 225.476 170.922L180.328 145.626C177.569 144.08 175.869 141.222 175.869 138.13V87.5379C175.869 84.4456 177.569 81.5883 180.328 80.0422L225.476 54.7458Z" fill="#F86464"/>
<path d="M61.6067 54.7458C64.3659 53.1998 67.7653 53.1998 70.5244 54.7458L115.672 80.0422C118.431 81.5883 120.131 84.4456 120.131 87.5379V138.13C120.131 141.222 118.431 144.08 115.672 145.626L70.5244 170.922C67.7653 172.468 64.3659 172.468 61.6067 170.922L16.4592 145.626C13.6998 144.08 12 141.222 12 138.13V87.5379C12 84.4456 13.6998 81.5883 16.4592 80.0422L61.6067 54.7458Z" fill="#F86464"/>
<path d="M225.476 145.084C228.235 143.538 231.634 143.538 234.393 145.084L279.541 170.381C282.3 171.927 284 174.784 284 177.877V228.468C284 231.561 282.3 234.418 279.541 235.964L234.393 261.261C231.634 262.807 228.235 262.807 225.476 261.261L180.328 235.964C177.569 234.418 175.869 231.561 175.869 228.468V177.877C175.869 174.784 177.569 171.927 180.328 170.381L225.476 145.084Z" fill="#F86464"/>
<path d="M61.6067 145.084C64.3659 143.538 67.7653 143.538 70.5244 145.084L115.672 170.381C118.431 171.927 120.131 174.784 120.131 177.877V228.468C120.131 231.561 118.431 234.418 115.672 235.964L70.5244 261.261C67.7653 262.807 64.3659 262.807 61.6067 261.261L16.4592 235.964C13.6998 234.418 12 231.561 12 228.468V177.877C12 174.784 13.6998 171.927 16.4592 170.381L61.6067 145.084Z" fill="#F86464"/>
<path d="M98.3936 35.1434L113.058 61.3151L98.3936 35.1434ZM98.3936 100.727L83.7294 126.899L83.7295 126.899L98.3936 100.727ZM152.459 126.023L137.795 99.8513H137.795L152.459 126.023ZM143.541 126.023L158.205 99.8513H158.205L143.541 126.023ZM197.606 100.727L212.271 126.899V126.899L197.606 100.727ZM197.606 35.1434L212.271 8.97157V8.97157L197.606 35.1434ZM152.459 9.84698L137.795 36.0188L152.459 9.84698ZM143.541 9.84698L128.877 -16.3248L128.877 -16.3248L143.541 9.84698ZM98.3936 210.411L113.058 236.583L98.3936 210.411ZM98.3936 275.995L113.058 249.823L98.3936 275.995ZM152.459 301.291L167.123 327.463L152.459 301.291ZM143.541 301.291L128.877 327.463H128.877L143.541 301.291ZM197.606 275.995L182.942 249.823L197.606 275.995ZM197.606 210.411L212.271 184.239V184.239L197.606 210.411ZM152.459 185.115L137.795 211.287H137.795L152.459 185.115ZM143.541 185.115L128.877 158.943L143.541 185.115ZM180.328 80.0422L165.664 53.8704L180.328 80.0422ZM180.328 145.626L194.992 119.454L180.328 145.626ZM234.393 170.922L219.729 144.75H219.729L234.393 170.922ZM225.476 170.922L210.811 197.094L225.476 170.922ZM279.541 145.626L294.205 171.797L279.541 145.626ZM279.541 80.0422L294.205 53.8704L279.541 80.0422ZM234.393 54.7458L219.729 80.9176L234.393 54.7458ZM225.476 54.7458L240.14 80.9176L225.476 54.7458ZM16.4592 80.0422L31.1234 106.214L16.4592 80.0422ZM16.4592 145.626L31.1234 119.454L16.4592 145.626ZM70.5244 170.922L55.8602 144.75H55.8602L70.5244 170.922ZM61.6067 170.922L46.9426 197.094H46.9426L61.6067 170.922ZM115.672 145.626L130.336 171.797L115.672 145.626ZM115.672 80.0422L130.336 53.8704L115.672 80.0422ZM70.5244 54.7458L55.8602 80.9176L70.5244 54.7458ZM61.6067 54.7458L46.9426 28.574L61.6067 54.7458ZM180.328 170.381L165.664 144.209L180.328 170.381ZM180.328 235.964L194.992 209.792L194.992 209.792L180.328 235.964ZM234.393 261.261L219.729 235.089V235.089L234.393 261.261ZM225.476 261.261L210.811 287.432L225.476 261.261ZM279.541 235.964L294.205 262.136L279.541 235.964ZM279.541 170.381L294.205 144.209L279.541 170.381ZM234.393 145.084L219.729 171.256L234.393 145.084ZM225.476 145.084L240.14 171.256L240.14 171.256L225.476 145.084ZM16.4592 170.381L1.79503 144.209H1.79502L16.4592 170.381ZM16.4592 235.964L31.1234 209.792L31.1234 209.792L16.4592 235.964ZM70.5244 261.261L55.8602 235.089L70.5244 261.261ZM61.6067 261.261L46.9426 287.432H46.9426L61.6067 261.261ZM115.672 235.964L130.336 262.136L115.672 235.964ZM115.672 170.381L130.336 144.209L115.672 170.381ZM70.5244 145.084L55.8602 171.256L70.5244 145.084ZM61.6067 145.084L76.2709 171.256L76.2709 171.256L61.6067 145.084ZM137.795 36.0188L182.942 61.3151L212.271 8.97157L167.123 -16.3248L137.795 36.0188ZM172.066 42.6391V93.231H232.066V42.6391H172.066ZM182.942 74.555L137.795 99.8513L167.123 152.195L212.271 126.899L182.942 74.555ZM158.205 99.8513L113.058 74.555L83.7295 126.899L128.877 152.195L158.205 99.8513ZM123.934 93.231V42.6391H63.9344V93.231H123.934ZM113.058 61.3151L158.205 36.0188L128.877 -16.3248L83.7294 8.97158L113.058 61.3151ZM123.934 42.6391C123.934 50.7082 119.5 57.7056 113.058 61.3151L83.7294 8.97157C71.7686 15.6733 63.9344 28.3854 63.9344 42.6391H123.934ZM113.058 74.555C119.5 78.1645 123.934 85.1619 123.934 93.231H63.9344C63.9344 107.485 71.7686 120.197 83.7294 126.899L113.058 74.555ZM137.795 99.8513C144.145 96.293 151.855 96.293 158.205 99.8513L128.877 152.195C140.746 158.845 155.254 158.845 167.123 152.195L137.795 99.8513ZM172.066 93.231C172.066 85.162 176.5 78.1646 182.942 74.555L212.271 126.899C224.231 120.197 232.066 107.485 232.066 93.231H172.066ZM182.942 61.3151C176.5 57.7056 172.066 50.7081 172.066 42.6391H232.066C232.066 28.3855 224.231 15.6733 212.271 8.97157L182.942 61.3151ZM167.123 -16.3248C155.254 -22.9751 140.746 -22.9751 128.877 -16.3248L158.205 36.0188C151.855 39.5771 144.145 39.5771 137.795 36.0188L167.123 -16.3248ZM137.795 211.287L182.942 236.583L212.271 184.239L167.123 158.943L137.795 211.287ZM172.066 217.907V268.499H232.066V217.907H172.066ZM182.942 249.823L137.795 275.119L167.123 327.463L212.271 302.166L182.942 249.823ZM158.205 275.119L113.058 249.823L83.7294 302.166L128.877 327.463L158.205 275.119ZM123.934 268.499V217.907H63.9344V268.499H123.934ZM113.058 236.583L158.205 211.287L128.877 158.943L83.7294 184.239L113.058 236.583ZM123.934 217.907C123.934 225.976 119.5 232.973 113.058 236.583L83.7294 184.239C71.7686 190.941 63.9344 203.653 63.9344 217.907H123.934ZM113.058 249.823C119.5 253.432 123.934 260.43 123.934 268.499H63.9344C63.9344 282.752 71.7686 295.465 83.7294 302.166L113.058 249.823ZM137.795 275.119C144.145 271.561 151.855 271.561 158.205 275.119L128.877 327.463C140.746 334.113 155.254 334.113 167.123 327.463L137.795 275.119ZM172.066 268.499C172.066 260.43 176.5 253.432 182.942 249.823L212.271 302.166C224.231 295.465 232.066 282.752 232.066 268.499H172.066ZM182.942 236.583C176.5 232.973 172.066 225.976 172.066 217.907H232.066C232.066 203.653 224.231 190.941 212.271 184.239L182.942 236.583ZM167.123 158.943C155.254 152.293 140.746 152.293 128.877 158.943L158.205 211.287C151.855 214.845 144.145 214.845 137.795 211.287L167.123 158.943ZM219.729 80.9176L264.877 106.214L294.205 53.8704L249.057 28.574L219.729 80.9176ZM254 87.5379V138.13H314V87.5379H254ZM264.877 119.454L219.729 144.75L249.057 197.094L294.205 171.797L264.877 119.454ZM240.14 144.75L194.992 119.454L165.664 171.797L210.811 197.094L240.14 144.75ZM205.869 138.13V87.5379H145.869V138.13H205.869ZM194.992 106.214L240.14 80.9176L210.811 28.574L165.664 53.8704L194.992 106.214ZM205.869 87.5379C205.869 95.607 201.434 102.604 194.992 106.214L165.664 53.8704C153.703 60.5721 145.869 73.2843 145.869 87.5379H205.869ZM194.992 119.454C201.434 123.063 205.869 130.061 205.869 138.13H145.869C145.869 152.383 153.703 165.096 165.664 171.797L194.992 119.454ZM219.729 144.75C226.08 141.192 233.789 141.192 240.14 144.75L210.811 197.094C222.681 203.744 237.189 203.744 249.057 197.094L219.729 144.75ZM254 138.13C254 130.061 258.434 123.063 264.877 119.454L294.205 171.797C306.166 165.096 314 152.383 314 138.13H254ZM264.877 106.214C258.434 102.604 254 95.607 254 87.5379H314C314 73.2843 306.166 60.5721 294.205 53.8704L264.877 106.214ZM249.057 28.574C237.188 21.9238 222.68 21.9238 210.811 28.574L240.14 80.9176C233.789 84.4759 226.08 84.4759 219.729 80.9176L249.057 28.574ZM55.8602 80.9176L101.008 106.214L130.336 53.8704L85.1886 28.574L55.8602 80.9176ZM90.1311 87.5379V138.13H150.131V87.5379H90.1311ZM101.008 119.454L55.8602 144.75L85.1886 197.094L130.336 171.797L101.008 119.454ZM76.2709 144.75L31.1234 119.454L1.79502 171.797L46.9426 197.094L76.2709 144.75ZM42 138.13V87.5379H-18V138.13H42ZM31.1234 106.214L76.2709 80.9176L46.9426 28.574L1.79502 53.8704L31.1234 106.214ZM42 87.5379C42 95.607 37.5655 102.604 31.1234 106.214L1.79502 53.8704C-10.1658 60.5721 -18 73.2843 -18 87.5379H42ZM31.1234 119.454C37.5655 123.063 42 130.061 42 138.13H-18C-18 152.384 -10.1658 165.096 1.79502 171.797L31.1234 119.454ZM55.8602 144.75C62.2108 141.192 69.9201 141.192 76.2709 144.75L46.9426 197.094C58.8117 203.744 73.3197 203.744 85.1886 197.094L55.8602 144.75ZM90.1311 138.13C90.1311 130.061 94.5657 123.063 101.008 119.454L130.336 171.797C142.297 165.096 150.131 152.384 150.131 138.13H90.1311ZM101.008 106.214C94.5657 102.604 90.1311 95.607 90.1311 87.5379H150.131C150.131 73.2842 142.297 60.5721 130.336 53.8704L101.008 106.214ZM85.1886 28.574C73.3196 21.9238 58.8116 21.9238 46.9426 28.574L76.2709 80.9176C69.9202 84.4759 62.2109 84.4759 55.8602 80.9176L85.1886 28.574ZM219.729 171.256L264.877 196.553L294.205 144.209L249.057 118.913L219.729 171.256ZM254 177.877V228.468H314V177.877H254ZM264.877 209.792L219.729 235.089L249.057 287.432L294.205 262.136L264.877 209.792ZM240.14 235.089L194.992 209.792L165.664 262.136L210.811 287.432L240.14 235.089ZM205.869 228.468V177.877H145.869V228.468H205.869ZM194.992 196.553L240.14 171.256L210.811 118.913L165.664 144.209L194.992 196.553ZM205.869 177.877C205.869 185.946 201.434 192.943 194.992 196.553L165.664 144.209C153.703 150.911 145.869 163.623 145.869 177.877H205.869ZM194.992 209.792C201.434 213.402 205.869 220.399 205.869 228.468H145.869C145.869 242.722 153.703 255.434 165.664 262.136L194.992 209.792ZM219.729 235.089C226.08 231.531 233.789 231.53 240.14 235.089L210.811 287.432C222.681 294.083 237.189 294.083 249.057 287.432L219.729 235.089ZM254 228.468C254 220.399 258.434 213.402 264.877 209.792L294.205 262.136C306.166 255.434 314 242.722 314 228.468H254ZM264.877 196.553C258.434 192.943 254 185.946 254 177.877H314C314 163.623 306.166 150.911 294.205 144.209L264.877 196.553ZM249.057 118.913C237.188 112.262 222.68 112.262 210.811 118.913L240.14 171.256C233.789 174.815 226.08 174.815 219.729 171.256L249.057 118.913ZM55.8602 171.256L101.008 196.553L130.336 144.209L85.1886 118.913L55.8602 171.256ZM90.1311 177.877V228.468H150.131V177.877H90.1311ZM101.008 209.792L55.8602 235.089L85.1886 287.432L130.336 262.136L101.008 209.792ZM76.2709 235.089L31.1234 209.792L1.79502 262.136L46.9426 287.432L76.2709 235.089ZM42 228.468V177.877H-18V228.468H42ZM31.1234 196.553L76.2709 171.256L46.9426 118.913L1.79503 144.209L31.1234 196.553ZM42 177.877C42 185.946 37.5655 192.943 31.1234 196.553L1.79502 144.209C-10.1658 150.911 -18 163.623 -18 177.877H42ZM31.1234 209.792C37.5655 213.402 42 220.399 42 228.468H-18C-18 242.722 -10.1658 255.434 1.79502 262.136L31.1234 209.792ZM55.8602 235.089C62.2108 231.531 69.9201 231.53 76.2709 235.089L46.9426 287.432C58.8117 294.083 73.3197 294.083 85.1886 287.432L55.8602 235.089ZM90.1311 228.468C90.1311 220.399 94.5657 213.402 101.008 209.792L130.336 262.136C142.297 255.434 150.131 242.722 150.131 228.468H90.1311ZM101.008 196.553C94.5657 192.943 90.1311 185.946 90.1311 177.877H150.131C150.131 163.623 142.297 150.911 130.336 144.209L101.008 196.553ZM85.1886 118.913C73.3195 112.262 58.8115 112.262 46.9426 118.913L76.2709 171.256C69.9203 174.815 62.211 174.815 55.8602 171.256L85.1886 118.913Z" fill="#F86464" mask="url(#path-1-inside-1_301_1471)"/>
</g>
<defs>
<filter id="filter0_d_301_1471" x="0" y="0.6875" width="296" height="317.763" filterUnits="userSpaceOnUse" color-interpolation-filters="sRGB">
<feFlood flood-opacity="0" result="BackgroundImageFix"/>
<feColorMatrix in="SourceAlpha" type="matrix" values="0 0 0 0 0 0 0 0 0 0 0 0 0 0 0 0 0 0 127 0" result="hardAlpha"/>
<feOffset dy="4"/>
<feGaussianBlur stdDeviation="6"/>
<feComposite in2="hardAlpha" operator="out"/>
<feColorMatrix type="matrix" values="0 0 0 0 0 0 0 0 0 0 0 0 0 0 0 0 0 0 0.16 0"/>
<feBlend mode="normal" in2="BackgroundImageFix" result="effect1_dropShadow_301_1471"/>
<feBlend mode="normal" in="SourceGraphic" in2="effect1_dropShadow_301_1471" result="shape"/>
</filter>
</defs>
</svg>
