<svg width="32" height="33" viewBox="0 0 32 33" fill="none" xmlns="http://www.w3.org/2000/svg">
<path d="M16 4.50195C9.3736 4.50195 4 9.87555 4 16.502C4 23.1284 9.3736 28.502 16 28.502C22.6264 28.502 28 23.1284 28 16.502C28 9.87555 22.6288 4.50195 16 4.50195ZM9.9208 16.9052L9.9712 16.8236L13.0936 11.9396C13.1392 11.87 13.2472 11.8772 13.2808 11.954C13.8016 13.1228 14.2528 14.5772 14.0416 15.482C13.9528 15.854 13.7056 16.358 13.4272 16.8236C13.3912 16.8908 13.3528 16.958 13.3096 17.0228C13.2904 17.0516 13.2568 17.0684 13.2208 17.0684H10.012C9.9256 17.0684 9.8752 16.9748 9.9208 16.9052ZM23.8336 18.5852C23.8336 18.6308 23.8072 18.6692 23.7688 18.686C23.5264 18.7892 22.6984 19.1708 22.3552 19.6484C21.4768 20.87 20.8072 22.6172 19.3072 22.6172H13.0528C10.8352 22.6172 9.04 20.8148 9.04 18.59V18.518C9.04 18.4604 9.088 18.4124 9.148 18.4124H12.6328C12.7024 18.4124 12.7528 18.4748 12.748 18.5444C12.7216 18.77 12.7648 19.0028 12.8728 19.214C13.0792 19.634 13.5088 19.8956 13.972 19.8956H15.6976V18.5492H13.9912C13.9048 18.5492 13.852 18.4484 13.9024 18.3764C13.9216 18.3476 13.9408 18.3188 13.9648 18.2852C14.1256 18.0548 14.356 17.6996 14.5864 17.294C14.7424 17.0204 14.8936 16.7276 15.016 16.4348C15.04 16.382 15.0592 16.3268 15.0808 16.274C15.1144 16.1804 15.148 16.0916 15.172 16.0052C15.196 15.9308 15.2176 15.854 15.2368 15.782C15.2944 15.5324 15.3184 15.2684 15.3184 14.9948C15.3184 14.8868 15.3136 14.774 15.304 14.6684C15.2992 14.5508 15.2848 14.4332 15.2704 14.3156C15.2608 14.2124 15.2416 14.1092 15.2224 14.0036C15.196 13.8476 15.1624 13.6916 15.124 13.5356L15.1096 13.4756C15.0808 13.3676 15.0544 13.2668 15.0208 13.1588C14.9224 12.8228 14.812 12.494 14.692 12.1868C14.6488 12.0644 14.6008 11.9468 14.5504 11.8316C14.4784 11.654 14.404 11.4932 14.3368 11.342C14.3008 11.2724 14.272 11.21 14.2432 11.1452C14.2096 11.0732 14.176 11.0012 14.14 10.9316C14.116 10.8788 14.0872 10.8284 14.068 10.7804L13.8568 10.3916C13.828 10.3388 13.876 10.274 13.9336 10.2908L15.2536 10.6484H15.2584C15.2608 10.6484 15.2608 10.6484 15.2632 10.6484L15.436 10.6988L15.628 10.7516L15.6976 10.7708V9.98835C15.6976 9.60915 16 9.30195 16.3768 9.30195C16.564 9.30195 16.7344 9.37875 16.8544 9.50355C16.9768 9.62835 17.0536 9.79875 17.0536 9.98835V11.1524L17.1952 11.1908C17.2048 11.1956 17.2168 11.2004 17.2264 11.2076C17.26 11.2316 17.3104 11.27 17.3728 11.318C17.4232 11.3564 17.476 11.4044 17.5384 11.4548C17.6656 11.558 17.8192 11.69 17.9848 11.8412C18.028 11.8796 18.0712 11.918 18.112 11.9588C18.3256 12.158 18.5656 12.3908 18.796 12.65C18.8608 12.7244 18.9232 12.7964 18.988 12.8756C19.0504 12.9548 19.12 13.0316 19.1776 13.1084C19.2568 13.2116 19.3384 13.3196 19.4128 13.4324C19.4464 13.4852 19.4872 13.5404 19.5184 13.5932C19.6144 13.7348 19.696 13.8812 19.7752 14.0276C19.8088 14.0948 19.8424 14.1692 19.8712 14.2412C19.96 14.438 20.0296 14.6372 20.0728 14.8388C20.0872 14.882 20.0968 14.9276 20.1016 14.9708V14.9804C20.116 15.038 20.1208 15.1004 20.1256 15.1652C20.1448 15.3692 20.1352 15.5756 20.092 15.782C20.0728 15.8684 20.0488 15.95 20.02 16.0388C19.9888 16.1228 19.96 16.2092 19.9216 16.2932C19.8472 16.4636 19.7608 16.6364 19.6576 16.7948C19.624 16.8548 19.5832 16.9172 19.5448 16.9772C19.5016 17.0396 19.456 17.0996 19.4176 17.1572C19.3624 17.2316 19.3048 17.3084 19.2448 17.378C19.192 17.45 19.1392 17.522 19.0792 17.5868C18.9976 17.6852 18.9184 17.7764 18.8344 17.8652C18.7864 17.9228 18.7336 17.9828 18.6784 18.0356C18.6256 18.0956 18.5704 18.1484 18.5224 18.1964C18.4384 18.2804 18.3712 18.3428 18.3136 18.398L18.1768 18.5204C18.1576 18.5396 18.1312 18.5492 18.1048 18.5492H17.0536V19.8956H18.376C18.6712 19.8956 18.952 19.7924 19.18 19.598C19.2568 19.5308 19.5952 19.238 19.996 18.7964C20.0104 18.7796 20.0272 18.77 20.0464 18.7652L23.6968 17.7092C23.7664 17.69 23.8336 17.7404 23.8336 17.8124V18.5852Z" fill="#F86464"/>
</svg>
