<svg width="170" height="57" viewBox="0 0 170 57" fill="none" xmlns="http://www.w3.org/2000/svg">
<mask id="path-1-inside-1_301_2189" fill="white">
<path d="M24.9332 0.224978C25.4457 -0.0749925 26.0771 -0.0749929 26.5896 0.224978L34.9755 5.13334C35.4881 5.43333 35.8038 5.98776 35.8038 6.58776V16.4043C35.8038 17.0043 35.4881 17.5588 34.9755 17.8588L26.5896 22.7671C26.0771 23.0671 25.4457 23.0671 24.9332 22.7671L16.5472 17.8588C16.0347 17.5588 15.7189 17.0043 15.7189 16.4043V6.58776C15.7189 5.98776 16.0347 5.43333 16.5472 5.13334L24.9332 0.224978Z"/>
<path d="M24.9332 34.2329C25.4457 33.9329 26.0771 33.9329 26.5896 34.2329L34.9755 39.1413C35.4881 39.4412 35.8038 39.9957 35.8038 40.5957V50.4122C35.8038 51.0122 35.4881 51.5667 34.9755 51.8667L26.5896 56.775C26.0771 57.075 25.4457 57.075 24.9332 56.775L16.5472 51.8667C16.0347 51.5667 15.7189 51.0122 15.7189 50.4122V40.5957C15.7189 39.9957 16.0347 39.4412 16.5472 39.1413L24.9332 34.2329Z"/>
<path d="M40.1521 8.93688C40.6646 8.63691 41.296 8.63691 41.8085 8.93688L50.1945 13.8452C50.707 14.1452 51.0227 14.6997 51.0227 15.2997V25.1162C51.0227 25.7162 50.707 26.2707 50.1945 26.5707L41.8085 31.479C41.296 31.779 40.6646 31.779 40.1521 31.479L31.7661 26.5707C31.2536 26.2707 30.9379 25.7162 30.9379 25.1162V15.2997C30.9379 14.6997 31.2536 14.1452 31.7661 13.8452L40.1521 8.93688Z"/>
<path d="M9.71422 8.93688C10.2267 8.63691 10.8581 8.63691 11.3706 8.93688L19.7566 13.8452C20.2691 14.1452 20.5849 14.6997 20.5849 15.2997V25.1162C20.5849 25.7162 20.2691 26.2707 19.7566 26.5707L11.3706 31.479C10.8581 31.779 10.2267 31.779 9.71422 31.479L1.32827 26.5707C0.815738 26.2707 0.5 25.7162 0.5 25.1162V15.2997C0.5 14.6997 0.815738 14.1452 1.32827 13.8452L9.71422 8.93688Z"/>
<path d="M40.1521 26.4657C40.6646 26.1657 41.296 26.1657 41.8085 26.4657L50.1945 31.374C50.707 31.674 51.0227 32.2284 51.0227 32.8284V42.645C51.0227 43.245 50.707 43.7994 50.1945 44.0994L41.8085 49.0078C41.296 49.3078 40.6646 49.3078 40.1521 49.0078L31.7661 44.0994C31.2536 43.7994 30.9379 43.245 30.9379 42.645V32.8284C30.9379 32.2284 31.2536 31.674 31.7661 31.374L40.1521 26.4657Z"/>
<path d="M9.71422 26.4657C10.2267 26.1657 10.8581 26.1657 11.3706 26.4657L19.7566 31.374C20.2691 31.674 20.5849 32.2284 20.5849 32.8284V42.645C20.5849 43.245 20.2691 43.7994 19.7566 44.0994L11.3706 49.0078C10.8581 49.3078 10.2267 49.3078 9.71422 49.0078L1.32827 44.0994C0.815738 43.7994 0.5 43.245 0.5 42.645V32.8284C0.5 32.2284 0.815738 31.674 1.32827 31.374L9.71422 26.4657Z"/>
</mask>
<path d="M24.9332 0.224978C25.4457 -0.0749925 26.0771 -0.0749929 26.5896 0.224978L34.9755 5.13334C35.4881 5.43333 35.8038 5.98776 35.8038 6.58776V16.4043C35.8038 17.0043 35.4881 17.5588 34.9755 17.8588L26.5896 22.7671C26.0771 23.0671 25.4457 23.0671 24.9332 22.7671L16.5472 17.8588C16.0347 17.5588 15.7189 17.0043 15.7189 16.4043V6.58776C15.7189 5.98776 16.0347 5.43333 16.5472 5.13334L24.9332 0.224978Z" fill="#F86464"/>
<path d="M24.9332 34.2329C25.4457 33.9329 26.0771 33.9329 26.5896 34.2329L34.9755 39.1413C35.4881 39.4412 35.8038 39.9957 35.8038 40.5957V50.4122C35.8038 51.0122 35.4881 51.5667 34.9755 51.8667L26.5896 56.775C26.0771 57.075 25.4457 57.075 24.9332 56.775L16.5472 51.8667C16.0347 51.5667 15.7189 51.0122 15.7189 50.4122V40.5957C15.7189 39.9957 16.0347 39.4412 16.5472 39.1413L24.9332 34.2329Z" fill="#F86464"/>
<path d="M40.1521 8.93688C40.6646 8.63691 41.296 8.63691 41.8085 8.93688L50.1945 13.8452C50.707 14.1452 51.0227 14.6997 51.0227 15.2997V25.1162C51.0227 25.7162 50.707 26.2707 50.1945 26.5707L41.8085 31.479C41.296 31.779 40.6646 31.779 40.1521 31.479L31.7661 26.5707C31.2536 26.2707 30.9379 25.7162 30.9379 25.1162V15.2997C30.9379 14.6997 31.2536 14.1452 31.7661 13.8452L40.1521 8.93688Z" fill="#F86464"/>
<path d="M9.71422 8.93688C10.2267 8.63691 10.8581 8.63691 11.3706 8.93688L19.7566 13.8452C20.2691 14.1452 20.5849 14.6997 20.5849 15.2997V25.1162C20.5849 25.7162 20.2691 26.2707 19.7566 26.5707L11.3706 31.479C10.8581 31.779 10.2267 31.779 9.71422 31.479L1.32827 26.5707C0.815738 26.2707 0.5 25.7162 0.5 25.1162V15.2997C0.5 14.6997 0.815738 14.1452 1.32827 13.8452L9.71422 8.93688Z" fill="#F86464"/>
<path d="M40.1521 26.4657C40.6646 26.1657 41.296 26.1657 41.8085 26.4657L50.1945 31.374C50.707 31.674 51.0227 32.2284 51.0227 32.8284V42.645C51.0227 43.245 50.707 43.7994 50.1945 44.0994L41.8085 49.0078C41.296 49.3078 40.6646 49.3078 40.1521 49.0078L31.7661 44.0994C31.2536 43.7994 30.9379 43.245 30.9379 42.645V32.8284C30.9379 32.2284 31.2536 31.674 31.7661 31.374L40.1521 26.4657Z" fill="#F86464"/>
<path d="M9.71422 26.4657C10.2267 26.1657 10.8581 26.1657 11.3706 26.4657L19.7566 31.374C20.2691 31.674 20.5849 32.2284 20.5849 32.8284V42.645C20.5849 43.245 20.2691 43.7994 19.7566 44.0994L11.3706 49.0078C10.8581 49.3078 10.2267 49.3078 9.71422 49.0078L1.32827 44.0994C0.815738 43.7994 0.5 43.245 0.5 42.645V32.8284C0.5 32.2284 0.815738 31.674 1.32827 31.374L9.71422 26.4657Z" fill="#F86464"/>
<path d="M16.5472 5.13334L31.7015 31.0244H31.7015L16.5472 5.13334ZM16.5472 17.8588L1.39296 43.7498H1.39296L16.5472 17.8588ZM26.5896 22.7671L11.4353 -3.12398L11.4353 -3.12398L26.5896 22.7671ZM24.9332 22.7671L40.0874 -3.12398L40.0874 -3.12398L24.9332 22.7671ZM34.9755 17.8588L50.1298 43.7498H50.1298L34.9755 17.8588ZM34.9755 5.13334L50.1298 -20.7578H50.1298L34.9755 5.13334ZM26.5896 0.224978L11.4353 26.1161H11.4353L26.5896 0.224978ZM24.9332 0.224978L9.7789 -25.6661H9.7789L24.9332 0.224978ZM16.5472 39.1413L31.7015 65.0323L16.5472 39.1413ZM16.5472 51.8667L31.7015 25.9756L31.7015 25.9756L16.5472 51.8667ZM26.5896 56.775L41.7438 82.6661H41.7438L26.5896 56.775ZM24.9332 56.775L9.77889 82.6661H9.7789L24.9332 56.775ZM34.9755 51.8667L19.8213 25.9756L19.8213 25.9756L34.9755 51.8667ZM34.9755 39.1413L50.1298 13.2502L50.1298 13.2502L34.9755 39.1413ZM26.5896 34.2329L11.4353 60.124L11.4353 60.124L26.5896 34.2329ZM24.9332 34.2329L9.7789 8.3418L24.9332 34.2329ZM31.7661 13.8452L16.6119 -12.0458L31.7661 13.8452ZM31.7661 26.5707L46.9204 0.679566L46.9204 0.679565L31.7661 26.5707ZM41.8085 31.479L26.6543 5.58792L26.6543 5.58792L41.8085 31.479ZM40.1521 31.479L24.9978 57.3701H24.9978L40.1521 31.479ZM50.1945 26.5707L65.3487 52.4617V52.4617L50.1945 26.5707ZM50.1945 13.8452L65.3487 -12.0458L50.1945 13.8452ZM41.8085 8.93688L26.6543 34.828L41.8085 8.93688ZM40.1521 8.93688L55.3063 34.828L40.1521 8.93688ZM1.32827 13.8452L16.4825 39.7363L16.4825 39.7363L1.32827 13.8452ZM1.32827 26.5707L16.4825 0.679566L16.4825 0.679565L1.32827 26.5707ZM11.3706 31.479L-3.78361 5.58792L-3.78362 5.58792L11.3706 31.479ZM9.71422 31.479L-5.44004 57.3701H-5.44004L9.71422 31.479ZM19.7566 26.5707L34.9108 52.4617L34.9108 52.4617L19.7566 26.5707ZM19.7566 13.8452L34.9108 -12.0458L19.7566 13.8452ZM11.3706 8.93688L-3.78362 34.828L11.3706 8.93688ZM9.71422 8.93688L-5.44004 -16.9542H-5.44004L9.71422 8.93688ZM31.7661 31.374L16.6119 5.48292L16.6119 5.48292L31.7661 31.374ZM31.7661 44.0994L46.9204 18.2083L46.9204 18.2083L31.7661 44.0994ZM41.8085 49.0078L26.6543 23.1167H26.6543L41.8085 49.0078ZM40.1521 49.0078L24.9978 74.8989H24.9978L40.1521 49.0078ZM50.1945 44.0994L65.3487 69.9905L50.1945 44.0994ZM50.1945 31.374L65.3487 5.48292V5.48292L50.1945 31.374ZM41.8085 26.4657L26.6543 52.3567H26.6543L41.8085 26.4657ZM40.1521 26.4657L55.3063 52.3567L55.3063 52.3567L40.1521 26.4657ZM1.32827 31.374L-13.826 5.48292L-13.826 5.48292L1.32827 31.374ZM1.32827 44.0994L16.4825 18.2083L16.4825 18.2083L1.32827 44.0994ZM11.3706 49.0078L-3.78362 23.1167H-3.78362L11.3706 49.0078ZM9.71422 49.0078L-5.44004 74.8989H-5.44004L9.71422 49.0078ZM19.7566 44.0994L34.9108 69.9905H34.9108L19.7566 44.0994ZM19.7566 31.374L34.9108 5.48292L34.9108 5.48292L19.7566 31.374ZM11.3706 26.4657L-3.78362 52.3567H-3.78362L11.3706 26.4657ZM9.71422 26.4657L24.8685 52.3567L24.8685 52.3567L9.71422 26.4657ZM11.4353 26.1161L19.8213 31.0244L50.1298 -20.7578L41.7438 -25.6661L11.4353 26.1161ZM5.80379 6.58776V16.4043H65.8038V6.58776H5.80379ZM19.8213 -8.03234L11.4353 -3.12398L41.7438 48.6582L50.1298 43.7498L19.8213 -8.03234ZM40.0874 -3.12398L31.7015 -8.03234L1.39296 43.7498L9.7789 48.6582L40.0874 -3.12398ZM45.7189 16.4043V6.58776H-14.2811V16.4043H45.7189ZM31.7015 31.0244L40.0874 26.1161L9.7789 -25.6661L1.39295 -20.7578L31.7015 31.0244ZM45.7189 6.58776C45.7189 16.5059 40.5008 25.8741 31.7015 31.0244L1.39296 -20.7578C-8.43146 -15.0074 -14.2811 -4.53037 -14.2811 6.58776H45.7189ZM31.7015 -8.03234C40.5008 -2.88201 45.7189 6.48622 45.7189 16.4043H-14.2811C-14.2811 27.5224 -8.43147 37.9995 1.39296 43.7498L31.7015 -8.03234ZM11.4353 -3.12398C20.2829 -8.30256 31.2398 -8.30256 40.0874 -3.12398L9.7789 48.6582C19.6515 54.4367 31.8712 54.4367 41.7438 48.6582L11.4353 -3.12398ZM5.80379 16.4043C5.80379 6.48627 11.0219 -2.88198 19.8213 -8.03234L50.1298 43.7498C59.9542 37.9995 65.8038 27.5224 65.8038 16.4043H5.80379ZM19.8213 31.0244C11.0219 25.8741 5.80379 16.5058 5.80379 6.58776H65.8038C65.8038 -4.53032 59.9542 -15.0074 50.1298 -20.7578L19.8213 31.0244ZM41.7438 -25.6661C31.8712 -31.4446 19.6515 -31.4446 9.7789 -25.6661L40.0874 26.1161C31.2398 31.2946 20.2829 31.2947 11.4353 26.1161L41.7438 -25.6661ZM11.4353 60.124L19.8213 65.0323L50.1298 13.2502L41.7438 8.3418L11.4353 60.124ZM5.80379 40.5957V50.4122H65.8038V40.5957H5.80379ZM19.8213 25.9756L11.4353 30.8839L41.7438 82.6661L50.1298 77.7578L19.8213 25.9756ZM40.0874 30.8839L31.7015 25.9756L1.39295 77.7578L9.77889 82.6661L40.0874 30.8839ZM45.7189 50.4122V40.5957H-14.2811V50.4122H45.7189ZM31.7015 65.0323L40.0874 60.124L9.7789 8.3418L1.39296 13.2502L31.7015 65.0323ZM45.7189 40.5957C45.7189 50.5138 40.5008 59.882 31.7015 65.0323L1.39296 13.2502C-8.43147 19.0005 -14.2811 29.4776 -14.2811 40.5957H45.7189ZM31.7015 25.9756C40.5008 31.1259 45.7189 40.4941 45.7189 50.4122H-14.2811C-14.2811 61.5304 -8.43147 72.0074 1.39296 77.7578L31.7015 25.9756ZM11.4353 30.8839C20.2829 25.7054 31.2398 25.7054 40.0874 30.8839L9.7789 82.6661C19.6515 88.4446 31.8712 88.4446 41.7438 82.6661L11.4353 30.8839ZM5.80379 50.4122C5.80379 40.4942 11.0219 31.1259 19.8213 25.9756L50.1298 77.7578C59.9542 72.0074 65.8038 61.5303 65.8038 50.4122H5.80379ZM19.8213 65.0323C11.0219 59.882 5.80379 50.5137 5.80379 40.5957H65.8038C65.8038 29.4776 59.9542 19.0005 50.1298 13.2502L19.8213 65.0323ZM41.7438 8.3418C31.8712 2.56328 19.6515 2.56328 9.7789 8.3418L40.0874 60.124C31.2398 65.3026 20.2829 65.3026 11.4353 60.124L41.7438 8.3418ZM26.6543 34.828L35.0402 39.7363L65.3487 -12.0458L56.9628 -16.9542L26.6543 34.828ZM21.0227 15.2997V25.1162H81.0227V15.2997H21.0227ZM35.0402 0.679562L26.6543 5.58792L56.9628 57.3701L65.3487 52.4617L35.0402 0.679562ZM55.3064 5.58793L46.9204 0.679566L16.6119 52.4617L24.9978 57.3701L55.3064 5.58793ZM60.9379 25.1162V15.2997H0.937874V25.1162H60.9379ZM46.9204 39.7363L55.3063 34.828L24.9978 -16.9542L16.6119 -12.0458L46.9204 39.7363ZM60.9379 15.2997C60.9379 25.2177 55.7198 34.586 46.9204 39.7363L16.6119 -12.0458C6.78742 -6.29551 0.937874 4.1816 0.937874 15.2997H60.9379ZM46.9204 0.679565C55.7198 5.82992 60.9379 15.1982 60.9379 25.1162H0.937874C0.937874 36.2343 6.78742 46.7114 16.6119 52.4617L46.9204 0.679565ZM26.6543 5.58792C35.5018 0.409411 46.4586 0.409283 55.3063 5.58792L24.9978 57.3701C34.8706 63.1487 47.0903 63.1486 56.9628 57.3701L26.6543 5.58792ZM21.0227 25.1162C21.0227 15.1982 26.2408 5.82992 35.0402 0.679565L65.3487 52.4617C75.1732 46.7114 81.0227 36.2343 81.0227 25.1162H21.0227ZM35.0402 39.7363C26.2408 34.586 21.0227 25.2177 21.0227 15.2997H81.0227C81.0227 4.18157 75.1732 -6.29553 65.3487 -12.0458L35.0402 39.7363ZM56.9628 -16.9542C47.0902 -22.7327 34.8704 -22.7327 24.9978 -16.9542L55.3063 34.828C46.4587 40.0065 35.5019 40.0065 26.6543 34.828L56.9628 -16.9542ZM-3.78362 34.828L4.60232 39.7363L34.9108 -12.0458L26.5249 -16.9542L-3.78362 34.828ZM-9.41514 15.2997V25.1162H50.5849V15.2997H-9.41514ZM4.60233 0.679563L-3.78361 5.58792L26.5249 57.3701L34.9108 52.4617L4.60233 0.679563ZM24.8685 5.58793L16.4825 0.679566L-13.826 52.4617L-5.44004 57.3701L24.8685 5.58793ZM30.5 25.1162V15.2997H-29.5V25.1162H30.5ZM16.4825 39.7363L24.8685 34.828L-5.44004 -16.9542L-13.826 -12.0458L16.4825 39.7363ZM30.5 15.2997C30.5 25.2178 25.2819 34.586 16.4825 39.7363L-13.826 -12.0458C-23.6504 -6.29553 -29.5 4.18155 -29.5 15.2997H30.5ZM16.4825 0.679565C25.2819 5.8299 30.5 15.1981 30.5 25.1162H-29.5C-29.5 36.2343 -23.6504 46.7114 -13.826 52.4617L16.4825 0.679565ZM-3.78362 5.58792C5.06388 0.409411 16.0208 0.409283 24.8685 5.58792L-5.44004 57.3701C4.43269 63.1487 16.6524 63.1486 26.5249 57.3701L-3.78362 5.58792ZM-9.41514 25.1162C-9.41514 15.1981 -4.19703 5.82989 4.60232 0.679565L34.9108 52.4617C44.7353 46.7114 50.5849 36.2343 50.5849 25.1162H-9.41514ZM4.60232 39.7363C-4.197 34.586 -9.41514 25.2178 -9.41514 15.2997H50.5849C50.5849 4.18151 44.7352 -6.29555 34.9108 -12.0458L4.60232 39.7363ZM26.5249 -16.9542C16.6523 -22.7327 4.43258 -22.7327 -5.44004 -16.9542L24.8685 34.828C16.0209 40.0065 5.06399 40.0065 -3.78362 34.828L26.5249 -16.9542ZM26.6543 52.3567L35.0402 57.2651L65.3487 5.48292L56.9628 0.574561L26.6543 52.3567ZM21.0227 32.8284V42.645H81.0227V32.8284H21.0227ZM35.0402 18.2083L26.6543 23.1167L56.9628 74.8989L65.3487 69.9905L35.0402 18.2083ZM55.3064 23.1167L46.9204 18.2083L16.6119 69.9905L24.9978 74.8989L55.3064 23.1167ZM60.9379 42.645V32.8284H0.937874V42.645H60.9379ZM46.9204 57.2651L55.3063 52.3567L24.9978 0.574561L16.6119 5.48292L46.9204 57.2651ZM60.9379 32.8284C60.9379 42.7465 55.7198 52.1147 46.9204 57.2651L16.6119 5.48292C6.78742 11.2333 0.937874 21.7104 0.937874 32.8284H60.9379ZM46.9204 18.2083C55.7198 23.3587 60.9379 32.7269 60.9379 42.645H0.937874C0.937874 53.7631 6.78742 64.2402 16.6119 69.9905L46.9204 18.2083ZM26.6543 23.1167C35.5018 17.9382 46.4586 17.9381 55.3063 23.1167L24.9978 74.8989C34.8706 80.6775 47.0903 80.6773 56.9628 74.8989L26.6543 23.1167ZM21.0227 42.645C21.0227 32.7269 26.2408 23.3587 35.0402 18.2083L65.3487 69.9905C75.1732 64.2402 81.0227 53.7631 81.0227 42.645H21.0227ZM35.0402 57.2651C26.2408 52.1147 21.0227 42.7465 21.0227 32.8284H81.0227C81.0227 21.7104 75.1732 11.2333 65.3487 5.48292L35.0402 57.2651ZM56.9628 0.574563C47.0901 -5.20399 34.8704 -5.20392 24.9978 0.574564L55.3063 52.3567C46.4588 57.5353 35.5019 57.5354 26.6543 52.3567L56.9628 0.574563ZM-3.78362 52.3567L4.60233 57.2651L34.9108 5.48292L26.5249 0.574561L-3.78362 52.3567ZM-9.41514 32.8284V42.645H50.5849V32.8284H-9.41514ZM4.60233 18.2083L-3.78362 23.1167L26.5249 74.8989L34.9108 69.9905L4.60233 18.2083ZM24.8685 23.1167L16.4825 18.2083L-13.826 69.9905L-5.44004 74.8989L24.8685 23.1167ZM30.5 42.645V32.8284H-29.5V42.645H30.5ZM16.4825 57.2651L24.8685 52.3567L-5.44003 0.574561L-13.826 5.48292L16.4825 57.2651ZM30.5 32.8284C30.5 42.7465 25.2819 52.1148 16.4825 57.2651L-13.826 5.48292C-23.6504 11.2332 -29.5 21.7103 -29.5 32.8284H30.5ZM16.4825 18.2083C25.2819 23.3587 30.5 32.7269 30.5 42.645H-29.5C-29.5 53.7631 -23.6504 64.2402 -13.826 69.9905L16.4825 18.2083ZM-3.78362 23.1167C5.06388 17.9382 16.0208 17.9381 24.8685 23.1167L-5.44004 74.8989C4.43269 80.6775 16.6524 80.6773 26.5249 74.8989L-3.78362 23.1167ZM-9.41514 42.645C-9.41514 32.7269 -4.19703 23.3587 4.60232 18.2083L34.9108 69.9905C44.7353 64.2402 50.5849 53.7631 50.5849 42.645H-9.41514ZM4.60232 57.2651C-4.19703 52.1148 -9.41514 42.7465 -9.41514 32.8284H50.5849C50.5849 21.7103 44.7353 11.2332 34.9108 5.48292L4.60232 57.2651ZM26.5249 0.574563C16.6522 -5.20399 4.43252 -5.20392 -5.44004 0.574564L24.8685 52.3567C16.0209 57.5353 5.06405 57.5354 -3.78362 52.3567L26.5249 0.574563Z" fill="#F86464" mask="url(#path-1-inside-1_301_2189)"/>
<path d="M80.2322 26.4567H84.6534C84.5895 22.5682 81.3935 19.8835 76.5355 19.8835C71.7521 19.8835 68.2472 22.5256 68.2685 26.4886C68.2578 29.706 70.527 31.549 74.2131 32.4332L76.5888 33.0298C78.9645 33.6051 80.2855 34.2869 80.2962 35.7571C80.2855 37.3551 78.7727 38.4418 76.429 38.4418C74.032 38.4418 72.3061 37.3338 72.157 35.1499H67.6932C67.8104 39.8693 71.1875 42.3089 76.4822 42.3089C81.8089 42.3089 84.9411 39.7628 84.9517 35.7678C84.9411 32.1349 82.2031 30.2067 78.4105 29.3544L76.4503 28.8857C74.554 28.4489 72.9666 27.7457 72.9986 26.1797C72.9986 24.7734 74.245 23.7401 76.5036 23.7401C78.7088 23.7401 80.0618 24.7415 80.2322 26.4567ZM101.531 20.1818V33.9567C101.531 36.4496 99.7839 38.25 97.0993 38.25C94.4252 38.25 92.6674 36.4496 92.6674 33.9567V20.1818H88.0545V34.3509C88.0545 39.1236 91.6554 42.3089 97.0993 42.3089C102.522 42.3089 106.144 39.1236 106.144 34.3509V20.1818H101.531ZM109.939 42H114.552V34.2656H117.919L122.052 42H127.145L122.51 33.5199C124.993 32.4545 126.367 30.2919 126.367 27.3089C126.367 22.973 123.501 20.1818 118.547 20.1818H109.939V42ZM114.552 30.5582V23.9531H117.663C120.326 23.9531 121.615 25.1357 121.615 27.3089C121.615 29.4716 120.326 30.5582 117.684 30.5582H114.552ZM144.094 27.2344H148.782C148.185 22.9197 144.382 19.8835 139.449 19.8835C133.686 19.8835 129.243 24.0384 129.243 31.1122C129.243 38.0156 133.398 42.2983 139.545 42.2983C145.053 42.2983 148.984 38.8146 148.984 33.0724V30.3239H139.854V33.7969H144.542C144.478 36.5028 142.635 38.218 139.566 38.218C136.104 38.218 133.92 35.6293 133.92 31.0696C133.92 26.5312 136.189 23.9638 139.524 23.9638C141.9 23.9638 143.508 25.1889 144.094 27.2344ZM152.449 42H167.193V38.1967H157.062V32.9872H166.394V29.1839H157.062V23.9851H167.151V20.1818H152.449V42Z" fill="#F86464"/>
</svg>
