<svg width="169" height="58" viewBox="0 0 169 58" fill="none" xmlns="http://www.w3.org/2000/svg">
<mask id="path-1-inside-1_596_794" fill="white">
<path d="M24.4332 0.226931C24.9457 -0.0730393 25.5771 -0.0730398 26.0896 0.226931L34.4755 5.13529C34.9881 5.43528 35.3038 5.98971 35.3038 6.58972V16.4063C35.3038 17.0063 34.9881 17.5607 34.4755 17.8607L26.0896 22.7691C25.5771 23.069 24.9457 23.069 24.4332 22.7691L16.0472 17.8607C15.5347 17.5607 15.2189 17.0063 15.2189 16.4063V6.58972C15.2189 5.98971 15.5347 5.43528 16.0472 5.13529L24.4332 0.226931Z"/>
<path d="M24.4332 34.2348C24.9457 33.9349 25.5771 33.9349 26.0896 34.2348L34.4755 39.1432C34.9881 39.4432 35.3038 39.9976 35.3038 40.5976V50.4142C35.3038 51.0142 34.9881 51.5686 34.4755 51.8686L26.0896 56.777C25.5771 57.077 24.9457 57.077 24.4332 56.777L16.0472 51.8686C15.5347 51.5686 15.2189 51.0142 15.2189 50.4142V40.5976C15.2189 39.9976 15.5347 39.4432 16.0472 39.1432L24.4332 34.2348Z"/>
<path d="M39.6521 8.93884C40.1646 8.63886 40.796 8.63886 41.3085 8.93884L49.6945 13.8472C50.207 14.1472 50.5227 14.7016 50.5227 15.3016V25.1182C50.5227 25.7182 50.207 26.2726 49.6945 26.5726L41.3085 31.481C40.796 31.7809 40.1646 31.7809 39.6521 31.481L31.2661 26.5726C30.7536 26.2726 30.4379 25.7182 30.4379 25.1182V15.3016C30.4379 14.7016 30.7536 14.1472 31.2661 13.8472L39.6521 8.93884Z"/>
<path d="M9.21422 8.93884C9.72672 8.63886 10.3581 8.63886 10.8706 8.93884L19.2566 13.8472C19.7691 14.1472 20.0849 14.7016 20.0849 15.3016V25.1182C20.0849 25.7182 19.7691 26.2726 19.2566 26.5726L10.8706 31.481C10.3581 31.7809 9.72672 31.7809 9.21422 31.481L0.828274 26.5726C0.315738 26.2726 0 25.7182 0 25.1182V15.3016C0 14.7016 0.315738 14.1472 0.828275 13.8472L9.21422 8.93884Z"/>
<path d="M39.6521 26.4676C40.1646 26.1676 40.796 26.1676 41.3085 26.4676L49.6945 31.376C50.207 31.676 50.5227 32.2304 50.5227 32.8304V42.6469C50.5227 43.247 50.207 43.8014 49.6945 44.1014L41.3085 49.0097C40.796 49.3097 40.1646 49.3097 39.6521 49.0097L31.2661 44.1014C30.7536 43.8014 30.4379 43.247 30.4379 42.6469V32.8304C30.4379 32.2304 30.7536 31.676 31.2661 31.376L39.6521 26.4676Z"/>
<path d="M9.21422 26.4676C9.72672 26.1676 10.3581 26.1676 10.8706 26.4676L19.2566 31.376C19.7691 31.676 20.0849 32.2304 20.0849 32.8304V42.6469C20.0849 43.247 19.7691 43.8014 19.2566 44.1014L10.8706 49.0097C10.3581 49.3097 9.72672 49.3097 9.21422 49.0097L0.828274 44.1014C0.315738 43.8014 0 43.247 0 42.6469V32.8304C0 32.2304 0.315738 31.676 0.828275 31.376L9.21422 26.4676Z"/>
</mask>
<path d="M24.4332 0.226931C24.9457 -0.0730393 25.5771 -0.0730398 26.0896 0.226931L34.4755 5.13529C34.9881 5.43528 35.3038 5.98971 35.3038 6.58972V16.4063C35.3038 17.0063 34.9881 17.5607 34.4755 17.8607L26.0896 22.7691C25.5771 23.069 24.9457 23.069 24.4332 22.7691L16.0472 17.8607C15.5347 17.5607 15.2189 17.0063 15.2189 16.4063V6.58972C15.2189 5.98971 15.5347 5.43528 16.0472 5.13529L24.4332 0.226931Z" fill="#F86464"/>
<path d="M24.4332 34.2348C24.9457 33.9349 25.5771 33.9349 26.0896 34.2348L34.4755 39.1432C34.9881 39.4432 35.3038 39.9976 35.3038 40.5976V50.4142C35.3038 51.0142 34.9881 51.5686 34.4755 51.8686L26.0896 56.777C25.5771 57.077 24.9457 57.077 24.4332 56.777L16.0472 51.8686C15.5347 51.5686 15.2189 51.0142 15.2189 50.4142V40.5976C15.2189 39.9976 15.5347 39.4432 16.0472 39.1432L24.4332 34.2348Z" fill="#F86464"/>
<path d="M39.6521 8.93884C40.1646 8.63886 40.796 8.63886 41.3085 8.93884L49.6945 13.8472C50.207 14.1472 50.5227 14.7016 50.5227 15.3016V25.1182C50.5227 25.7182 50.207 26.2726 49.6945 26.5726L41.3085 31.481C40.796 31.7809 40.1646 31.7809 39.6521 31.481L31.2661 26.5726C30.7536 26.2726 30.4379 25.7182 30.4379 25.1182V15.3016C30.4379 14.7016 30.7536 14.1472 31.2661 13.8472L39.6521 8.93884Z" fill="#F86464"/>
<path d="M9.21422 8.93884C9.72672 8.63886 10.3581 8.63886 10.8706 8.93884L19.2566 13.8472C19.7691 14.1472 20.0849 14.7016 20.0849 15.3016V25.1182C20.0849 25.7182 19.7691 26.2726 19.2566 26.5726L10.8706 31.481C10.3581 31.7809 9.72672 31.7809 9.21422 31.481L0.828274 26.5726C0.315738 26.2726 0 25.7182 0 25.1182V15.3016C0 14.7016 0.315738 14.1472 0.828275 13.8472L9.21422 8.93884Z" fill="#F86464"/>
<path d="M39.6521 26.4676C40.1646 26.1676 40.796 26.1676 41.3085 26.4676L49.6945 31.376C50.207 31.676 50.5227 32.2304 50.5227 32.8304V42.6469C50.5227 43.247 50.207 43.8014 49.6945 44.1014L41.3085 49.0097C40.796 49.3097 40.1646 49.3097 39.6521 49.0097L31.2661 44.1014C30.7536 43.8014 30.4379 43.247 30.4379 42.6469V32.8304C30.4379 32.2304 30.7536 31.676 31.2661 31.376L39.6521 26.4676Z" fill="#F86464"/>
<path d="M9.21422 26.4676C9.72672 26.1676 10.3581 26.1676 10.8706 26.4676L19.2566 31.376C19.7691 31.676 20.0849 32.2304 20.0849 32.8304V42.6469C20.0849 43.247 19.7691 43.8014 19.2566 44.1014L10.8706 49.0097C10.3581 49.3097 9.72672 49.3097 9.21422 49.0097L0.828274 44.1014C0.315738 43.8014 0 43.247 0 42.6469V32.8304C0 32.2304 0.315738 31.676 0.828275 31.376L9.21422 26.4676Z" fill="#F86464"/>
<path d="M16.0472 5.13529L31.2015 31.0264H31.2015L16.0472 5.13529ZM16.0472 17.8607L0.892955 43.7518H0.892957L16.0472 17.8607ZM26.0896 22.7691L10.9353 -3.12203L10.9353 -3.12203L26.0896 22.7691ZM24.4332 22.7691L39.5874 -3.12203L39.5874 -3.12203L24.4332 22.7691ZM34.4755 17.8607L49.6298 43.7518H49.6298L34.4755 17.8607ZM34.4755 5.13529L49.6298 -20.7558H49.6298L34.4755 5.13529ZM26.0896 0.226931L10.9353 26.118H10.9353L26.0896 0.226931ZM24.4332 0.226931L9.2789 -25.6642H9.2789L24.4332 0.226931ZM16.0472 39.1432L31.2015 65.0343L16.0472 39.1432ZM16.0472 51.8686L31.2015 25.9775L31.2015 25.9775L16.0472 51.8686ZM26.0896 56.777L41.2438 82.6681H41.2438L26.0896 56.777ZM24.4332 56.777L9.27889 82.6681H9.2789L24.4332 56.777ZM34.4755 51.8686L19.3213 25.9775L19.3213 25.9775L34.4755 51.8686ZM34.4755 39.1432L49.6298 13.2521L49.6298 13.2521L34.4755 39.1432ZM26.0896 34.2348L10.9353 60.1259L10.9353 60.1259L26.0896 34.2348ZM24.4332 34.2348L9.2789 8.34376L24.4332 34.2348ZM31.2661 13.8472L16.1119 -12.0439L31.2661 13.8472ZM31.2661 26.5726L46.4204 0.681519L46.4204 0.681518L31.2661 26.5726ZM41.3085 31.481L26.1543 5.58987L26.1543 5.58987L41.3085 31.481ZM39.6521 31.481L24.4978 57.3721H24.4978L39.6521 31.481ZM49.6945 26.5726L64.8487 52.4637V52.4637L49.6945 26.5726ZM49.6945 13.8472L64.8487 -12.0439L49.6945 13.8472ZM41.3085 8.93884L26.1543 34.8299L41.3085 8.93884ZM39.6521 8.93884L54.8063 34.8299L39.6521 8.93884ZM0.828275 13.8472L15.9825 39.7383L15.9825 39.7383L0.828275 13.8472ZM0.828274 26.5726L15.9825 0.681519L15.9825 0.681518L0.828274 26.5726ZM10.8706 31.481L-4.28361 5.58987L-4.28362 5.58987L10.8706 31.481ZM9.21422 31.481L-5.94004 57.3721H-5.94004L9.21422 31.481ZM19.2566 26.5726L34.4108 52.4637L34.4108 52.4637L19.2566 26.5726ZM19.2566 13.8472L34.4108 -12.0439L19.2566 13.8472ZM10.8706 8.93884L-4.28362 34.8299L10.8706 8.93884ZM9.21422 8.93884L-5.94004 -16.9523H-5.94004L9.21422 8.93884ZM31.2661 31.376L16.1119 5.48487L16.1119 5.48487L31.2661 31.376ZM31.2661 44.1014L46.4204 18.2103L46.4204 18.2103L31.2661 44.1014ZM41.3085 49.0097L26.1543 23.1186H26.1543L41.3085 49.0097ZM39.6521 49.0097L24.4978 74.9008H24.4978L39.6521 49.0097ZM49.6945 44.1014L64.8487 69.9925L49.6945 44.1014ZM49.6945 31.376L64.8487 5.48487V5.48487L49.6945 31.376ZM41.3085 26.4676L26.1543 52.3587H26.1543L41.3085 26.4676ZM39.6521 26.4676L54.8063 52.3587L54.8063 52.3587L39.6521 26.4676ZM0.828275 31.376L-14.326 5.48487L-14.326 5.48487L0.828275 31.376ZM0.828274 44.1014L15.9825 18.2103L15.9825 18.2103L0.828274 44.1014ZM10.8706 49.0097L-4.28362 23.1186H-4.28362L10.8706 49.0097ZM9.21422 49.0097L-5.94004 74.9008H-5.94004L9.21422 49.0097ZM19.2566 44.1014L34.4108 69.9925H34.4108L19.2566 44.1014ZM19.2566 31.376L34.4108 5.48487L34.4108 5.48487L19.2566 31.376ZM10.8706 26.4676L-4.28362 52.3587H-4.28362L10.8706 26.4676ZM9.21422 26.4676L24.3685 52.3587L24.3685 52.3587L9.21422 26.4676ZM10.9353 26.118L19.3213 31.0264L49.6298 -20.7558L41.2438 -25.6642L10.9353 26.118ZM5.30379 6.58972V16.4063H65.3038V6.58972H5.30379ZM19.3213 -8.03039L10.9353 -3.12203L41.2438 48.6602L49.6298 43.7518L19.3213 -8.03039ZM39.5874 -3.12203L31.2015 -8.03039L0.892957 43.7518L9.2789 48.6602L39.5874 -3.12203ZM45.2189 16.4063V6.58972H-14.7811V16.4063H45.2189ZM31.2015 31.0264L39.5874 26.118L9.2789 -25.6642L0.892954 -20.7558L31.2015 31.0264ZM45.2189 6.58972C45.2189 16.5078 40.0008 25.8761 31.2015 31.0264L0.892955 -20.7558C-8.93146 -15.0055 -14.7811 -4.52841 -14.7811 6.58972H45.2189ZM31.2015 -8.03039C40.0008 -2.88006 45.2189 6.48817 45.2189 16.4063H-14.7811C-14.7811 27.5244 -8.93147 38.0015 0.892955 43.7518L31.2015 -8.03039ZM10.9353 -3.12203C19.7829 -8.3006 30.7398 -8.3006 39.5874 -3.12203L9.2789 48.6602C19.1515 54.4387 31.3712 54.4387 41.2438 48.6602L10.9353 -3.12203ZM5.30379 16.4063C5.30379 6.48823 10.5219 -2.88003 19.3213 -8.03039L49.6298 43.7518C59.4542 38.0015 65.3038 27.5243 65.3038 16.4063H5.30379ZM19.3213 31.0264C10.5219 25.876 5.30379 16.5078 5.30379 6.58972H65.3038C65.3038 -4.52837 59.4542 -15.0055 49.6298 -20.7558L19.3213 31.0264ZM41.2438 -25.6642C31.3712 -31.4427 19.1515 -31.4427 9.2789 -25.6642L39.5874 26.118C30.7398 31.2966 19.7829 31.2966 10.9353 26.118L41.2438 -25.6642ZM10.9353 60.1259L19.3213 65.0343L49.6298 13.2521L41.2438 8.34375L10.9353 60.1259ZM5.30379 40.5976V50.4142H65.3038V40.5976H5.30379ZM19.3213 25.9775L10.9353 30.8859L41.2438 82.6681L49.6298 77.7597L19.3213 25.9775ZM39.5874 30.8859L31.2015 25.9775L0.89295 77.7597L9.27889 82.6681L39.5874 30.8859ZM45.2189 50.4142V40.5976H-14.7811V50.4142H45.2189ZM31.2015 65.0343L39.5874 60.1259L9.2789 8.34376L0.892955 13.2521L31.2015 65.0343ZM45.2189 40.5976C45.2189 50.5157 40.0008 59.884 31.2015 65.0343L0.892955 13.2521C-8.93147 19.0024 -14.7811 29.4795 -14.7811 40.5976H45.2189ZM31.2015 25.9775C40.0008 31.1279 45.2189 40.4961 45.2189 50.4142H-14.7811C-14.7811 61.5323 -8.93147 72.0094 0.892955 77.7597L31.2015 25.9775ZM10.9353 30.8859C19.7829 25.7073 30.7398 25.7073 39.5874 30.8859L9.2789 82.6681C19.1515 88.4466 31.3712 88.4466 41.2438 82.6681L10.9353 30.8859ZM5.30379 50.4142C5.30379 40.4961 10.5219 31.1279 19.3213 25.9775L49.6298 77.7597C59.4542 72.0094 65.3038 61.5323 65.3038 50.4142H5.30379ZM19.3213 65.0343C10.5219 59.8839 5.30379 50.5157 5.30379 40.5976H65.3038C65.3038 29.4796 59.4542 19.0025 49.6298 13.2521L19.3213 65.0343ZM41.2438 8.34376C31.3712 2.56524 19.1515 2.56524 9.2789 8.34376L39.5874 60.1259C30.7398 65.3045 19.7829 65.3045 10.9353 60.1259L41.2438 8.34376ZM26.1543 34.8299L34.5402 39.7383L64.8487 -12.0439L56.4628 -16.9523L26.1543 34.8299ZM20.5227 15.3016V25.1182H80.5227V15.3016H20.5227ZM34.5402 0.681515L26.1543 5.58987L56.4628 57.3721L64.8487 52.4637L34.5402 0.681515ZM54.8064 5.58988L46.4204 0.681519L16.1119 52.4637L24.4978 57.3721L54.8064 5.58988ZM60.4379 25.1182V15.3016H0.437874V25.1182H60.4379ZM46.4204 39.7383L54.8063 34.8299L24.4978 -16.9523L16.1119 -12.0439L46.4204 39.7383ZM60.4379 15.3016C60.4379 25.2197 55.2198 34.5879 46.4204 39.7383L16.1119 -12.0439C6.28742 -6.29356 0.437874 4.18355 0.437874 15.3016H60.4379ZM46.4204 0.681518C55.2198 5.83188 60.4379 15.2001 60.4379 25.1182H0.437874C0.437874 36.2362 6.28742 46.7134 16.1119 52.4637L46.4204 0.681518ZM26.1543 5.58987C35.0018 0.411364 45.9586 0.411236 54.8063 5.58988L24.4978 57.3721C34.3706 63.1506 46.5903 63.1505 56.4628 57.3721L26.1543 5.58987ZM20.5227 25.1182C20.5227 15.2001 25.7408 5.83188 34.5402 0.681518L64.8487 52.4637C74.6732 46.7134 80.5227 36.2362 80.5227 25.1182H20.5227ZM34.5402 39.7383C25.7408 34.5879 20.5227 25.2197 20.5227 15.3016H80.5227C80.5227 4.18352 74.6732 -6.29357 64.8487 -12.0439L34.5402 39.7383ZM56.4628 -16.9523C46.5902 -22.7308 34.3704 -22.7308 24.4978 -16.9523L54.8063 34.8299C45.9587 40.0085 35.0019 40.0085 26.1543 34.8299L56.4628 -16.9523ZM-4.28362 34.8299L4.10232 39.7383L34.4108 -12.0439L26.0249 -16.9523L-4.28362 34.8299ZM-9.91514 15.3016V25.1182H50.0849V15.3016H-9.91514ZM4.10233 0.681516L-4.28361 5.58987L26.0249 57.3721L34.4108 52.4637L4.10233 0.681516ZM24.3685 5.58988L15.9825 0.681519L-14.326 52.4637L-5.94004 57.3721L24.3685 5.58988ZM30 25.1182V15.3016H-30V25.1182H30ZM15.9825 39.7383L24.3685 34.8299L-5.94004 -16.9523L-14.326 -12.0439L15.9825 39.7383ZM30 15.3016C30 25.2197 24.7819 34.588 15.9825 39.7383L-14.326 -12.0439C-24.1504 -6.29358 -30 4.1835 -30 15.3016H30ZM15.9825 0.681518C24.7819 5.83185 30 15.2001 30 25.1182H-30C-30 36.2363 -24.1504 46.7134 -14.326 52.4637L15.9825 0.681518ZM-4.28362 5.58987C4.56388 0.411364 15.5208 0.411236 24.3685 5.58988L-5.94004 57.3721C3.93269 63.1506 16.1524 63.1505 26.0249 57.3721L-4.28362 5.58987ZM-9.91514 25.1182C-9.91514 15.2001 -4.69703 5.83185 4.10232 0.681518L34.4108 52.4637C44.2353 46.7134 50.0849 36.2363 50.0849 25.1182H-9.91514ZM4.10232 39.7383C-4.697 34.588 -9.91514 25.2198 -9.91514 15.3016H50.0849C50.0849 4.18347 44.2352 -6.2936 34.4108 -12.0439L4.10232 39.7383ZM26.0249 -16.9523C16.1523 -22.7308 3.93258 -22.7308 -5.94004 -16.9523L24.3685 34.8299C15.5209 40.0085 4.56399 40.0085 -4.28362 34.8299L26.0249 -16.9523ZM26.1543 52.3587L34.5402 57.2671L64.8487 5.48487L56.4628 0.576514L26.1543 52.3587ZM20.5227 32.8304V42.6469H80.5227V32.8304H20.5227ZM34.5402 18.2103L26.1543 23.1186L56.4628 74.9008L64.8487 69.9925L34.5402 18.2103ZM54.8064 23.1187L46.4204 18.2103L16.1119 69.9925L24.4978 74.9008L54.8064 23.1187ZM60.4379 42.6469V32.8304H0.437874V42.6469H60.4379ZM46.4204 57.2671L54.8063 52.3587L24.4978 0.576514L16.1119 5.48487L46.4204 57.2671ZM60.4379 32.8304C60.4379 42.7484 55.2198 52.1167 46.4204 57.2671L16.1119 5.48487C6.28742 11.2352 0.437874 21.7123 0.437874 32.8304H60.4379ZM46.4204 18.2103C55.2198 23.3606 60.4379 32.7289 60.4379 42.6469H0.437874C0.437874 53.765 6.28742 64.2421 16.1119 69.9925L46.4204 18.2103ZM26.1543 23.1186C35.0018 17.9401 45.9586 17.94 54.8063 23.1186L24.4978 74.9008C34.3706 80.6794 46.5903 80.6793 56.4628 74.9008L26.1543 23.1186ZM20.5227 42.6469C20.5227 32.7289 25.7408 23.3606 34.5402 18.2103L64.8487 69.9925C74.6732 64.2421 80.5227 53.765 80.5227 42.6469H20.5227ZM34.5402 57.2671C25.7408 52.1167 20.5227 42.7484 20.5227 32.8304H80.5227C80.5227 21.7123 74.6732 11.2352 64.8487 5.48487L34.5402 57.2671ZM56.4628 0.576516C46.5901 -5.20203 34.3704 -5.20197 24.4978 0.576517L54.8063 52.3587C45.9588 57.5372 35.0019 57.5373 26.1543 52.3587L56.4628 0.576516ZM-4.28362 52.3587L4.10233 57.2671L34.4108 5.48487L26.0249 0.576514L-4.28362 52.3587ZM-9.91514 32.8304V42.6469H50.0849V32.8304H-9.91514ZM4.10233 18.2103L-4.28362 23.1186L26.0249 74.9008L34.4108 69.9925L4.10233 18.2103ZM24.3685 23.1187L15.9825 18.2103L-14.326 69.9925L-5.94004 74.9008L24.3685 23.1187ZM30 42.6469V32.8304H-30V42.6469H30ZM15.9825 57.2671L24.3685 52.3587L-5.94003 0.576514L-14.326 5.48487L15.9825 57.2671ZM30 32.8304C30 42.7485 24.7819 52.1167 15.9825 57.2671L-14.326 5.48487C-24.1504 11.2352 -30 21.7123 -30 32.8304H30ZM15.9825 18.2103C24.7819 23.3606 30 32.7289 30 42.6469H-30C-30 53.7651 -24.1504 64.2421 -14.326 69.9925L15.9825 18.2103ZM-4.28362 23.1186C4.56388 17.9401 15.5208 17.94 24.3685 23.1186L-5.94004 74.9008C3.93269 80.6794 16.1524 80.6793 26.0249 74.9008L-4.28362 23.1186ZM-9.91514 42.6469C-9.91514 32.7288 -4.69703 23.3606 4.10232 18.2103L34.4108 69.9925C44.2353 64.2422 50.0849 53.7651 50.0849 42.6469H-9.91514ZM4.10232 57.2671C-4.69703 52.1167 -9.91514 42.7485 -9.91514 32.8304H50.0849C50.0849 21.7123 44.2353 11.2352 34.4108 5.48487L4.10232 57.2671ZM26.0249 0.576516C16.1522 -5.20203 3.93252 -5.20197 -5.94004 0.576517L24.3685 52.3587C15.5209 57.5372 4.56405 57.5373 -4.28362 52.3587L26.0249 0.576516Z" fill="#F86464" mask="url(#path-1-inside-1_596_794)"/>
<path d="M79.7322 26.4586C79.647 25.5993 79.2813 24.9316 78.6349 24.4558C77.9886 23.9799 77.1115 23.742 76.0036 23.742C75.2507 23.742 74.6151 23.8485 74.0966 24.0616C73.5781 24.2676 73.1804 24.5552 72.9034 24.9245C72.6335 25.2939 72.4986 25.7129 72.4986 26.1816C72.4844 26.5723 72.5661 26.9132 72.7436 27.2044C72.9283 27.4956 73.1804 27.7477 73.5 27.9608C73.8196 28.1667 74.1889 28.3478 74.608 28.5041C75.027 28.6532 75.4744 28.7811 75.9503 28.8876L77.9105 29.3564C78.8622 29.5694 79.7358 29.8535 80.5312 30.2086C81.3267 30.5637 82.0156 31.0005 82.598 31.519C83.1804 32.0375 83.6314 32.6483 83.951 33.3514C84.2777 34.0545 84.4446 34.8606 84.4517 35.7697C84.4446 37.1049 84.1037 38.2626 83.429 39.2427C82.7614 40.2157 81.7955 40.9721 80.5312 41.5119C79.2741 42.0446 77.7578 42.3109 75.9822 42.3109C74.2209 42.3109 72.6868 42.041 71.38 41.5012C70.0803 40.9615 69.0646 40.1625 68.3331 39.1042C67.6087 38.0389 67.2287 36.7214 67.1932 35.1518H71.657C71.7067 35.8833 71.9162 36.4941 72.2855 36.9842C72.6619 37.4672 73.1626 37.8329 73.7876 38.0815C74.4197 38.323 75.1335 38.4437 75.929 38.4437C76.7102 38.4437 77.3885 38.3301 77.9638 38.1028C78.5462 37.8755 78.9972 37.5595 79.3168 37.1547C79.6364 36.7498 79.7962 36.2846 79.7962 35.7591C79.7962 35.269 79.6506 34.8571 79.3594 34.5233C79.0753 34.1895 78.6563 33.9054 78.1023 33.671C77.5554 33.4366 76.8842 33.2235 76.0888 33.0318L73.7131 32.4352C71.8736 31.9877 70.4212 31.2882 69.3558 30.3365C68.2905 29.3848 67.7614 28.1028 67.7685 26.4906C67.7614 25.1696 68.1129 24.0154 68.8232 23.0282C69.5405 22.041 70.5241 21.2704 71.7741 20.7164C73.0241 20.1625 74.4446 19.8855 76.0355 19.8855C77.6548 19.8855 79.0682 20.1625 80.2756 20.7164C81.4901 21.2704 82.4347 22.041 83.1094 23.0282C83.7841 24.0154 84.1321 25.1589 84.1534 26.4586H79.7322ZM101.031 20.1838H105.644V34.3528C105.644 35.9437 105.264 37.3358 104.504 38.5289C103.751 39.7221 102.697 40.6525 101.34 41.3201C99.9835 41.9806 98.4032 42.3109 96.5993 42.3109C94.7882 42.3109 93.2044 41.9806 91.8478 41.3201C90.4913 40.6525 89.4366 39.7221 88.6838 38.5289C87.9309 37.3358 87.5545 35.9437 87.5545 34.3528V20.1838H92.1674V33.9586C92.1674 34.7896 92.3485 35.5282 92.7108 36.1745C93.0801 36.8208 93.5985 37.3287 94.2662 37.698C94.9338 38.0673 95.7115 38.252 96.5993 38.252C97.4941 38.252 98.2718 38.0673 98.9324 37.698C99.6 37.3287 100.115 36.8208 100.477 36.1745C100.846 35.5282 101.031 34.7896 101.031 33.9586V20.1838ZM109.439 42.002V20.1838H118.047C119.695 20.1838 121.101 20.4785 122.266 21.068C123.438 21.6504 124.329 22.4778 124.94 23.5502C125.558 24.6156 125.867 25.8691 125.867 27.3109C125.867 28.7598 125.554 30.0062 124.929 31.0502C124.304 32.0872 123.399 32.8826 122.213 33.4366C121.034 33.9906 119.606 34.2676 117.93 34.2676H112.167V30.5602H117.184C118.065 30.5602 118.797 30.4395 119.379 30.198C119.961 29.9565 120.395 29.5943 120.679 29.1113C120.97 28.6284 121.115 28.0282 121.115 27.3109C121.115 26.5865 120.97 25.9757 120.679 25.4785C120.395 24.9814 119.958 24.6049 119.368 24.3493C118.786 24.0865 118.051 23.9551 117.163 23.9551H114.052V42.002H109.439ZM121.222 32.073L126.645 42.002H121.552L116.247 32.073H121.222ZM143.594 27.2363C143.445 26.7179 143.235 26.2598 142.966 25.862C142.696 25.4572 142.365 25.1163 141.975 24.8393C141.591 24.5552 141.151 24.3386 140.654 24.1895C140.164 24.0403 139.62 23.9657 139.024 23.9657C137.909 23.9657 136.929 24.2427 136.083 24.7967C135.245 25.3507 134.592 26.1568 134.123 27.215C133.654 28.2662 133.42 29.5517 133.42 31.0716C133.42 32.5914 133.651 33.8841 134.113 34.9494C134.574 36.0147 135.228 36.8279 136.073 37.389C136.918 37.943 137.916 38.22 139.066 38.22C140.11 38.22 141.002 38.0353 141.74 37.666C142.486 37.2896 143.054 36.7605 143.445 36.0787C143.843 35.3968 144.042 34.5907 144.042 33.6603L144.979 33.7988H139.354V30.3258H148.484V33.0744C148.484 34.992 148.079 36.6397 147.27 38.0176C146.46 39.3883 145.345 40.4466 143.924 41.1923C142.504 41.9309 140.877 42.3002 139.045 42.3002C137 42.3002 135.203 41.8493 133.654 40.9473C132.106 40.0382 130.899 38.7491 130.032 37.0801C129.173 35.4039 128.743 33.4153 128.743 31.1142C128.743 29.3457 128.999 27.769 129.51 26.3841C130.029 24.992 130.753 23.813 131.684 22.8471C132.614 21.8812 133.697 21.1461 134.933 20.6419C136.169 20.1376 137.507 19.8855 138.949 19.8855C140.185 19.8855 141.336 20.0666 142.401 20.4288C143.466 20.7839 144.411 21.2882 145.235 21.9416C146.066 22.595 146.744 23.3727 147.27 24.2747C147.795 25.1696 148.132 26.1568 148.282 27.2363H143.594ZM151.949 42.002V20.1838H166.651V23.987H156.562V29.1859H165.894V32.9892H156.562V38.1987H166.693V42.002H151.949Z" fill="#F86464"/>
</svg>
