<svg width="24" height="21" viewBox="0 0 24 21" fill="none" xmlns="http://www.w3.org/2000/svg">
<path d="M21.5156 5.62695C22.4531 4.92383 23.2969 4.08008 23.9531 3.0957C23.1094 3.4707 22.125 3.75195 21.1406 3.8457C22.1719 3.23633 22.9219 2.29883 23.2969 1.12695C22.3594 1.68945 21.2812 2.11133 20.2031 2.3457C19.2656 1.36133 18 0.798828 16.5938 0.798828C13.875 0.798828 11.6719 3.00195 11.6719 5.7207C11.6719 6.0957 11.7188 6.4707 11.8125 6.8457C7.73438 6.61133 4.07812 4.64258 1.64062 1.68945C1.21875 2.39258 0.984375 3.23633 0.984375 4.17383C0.984375 5.86133 1.82812 7.36133 3.1875 8.25195C2.39062 8.20508 1.59375 8.01758 0.9375 7.64258V7.68945C0.9375 10.0801 2.625 12.0488 4.875 12.5176C4.5 12.6113 4.03125 12.7051 3.60938 12.7051C3.28125 12.7051 3 12.6582 2.67188 12.6113C3.28125 14.5801 5.10938 15.9863 7.26562 16.0332C5.57812 17.3457 3.46875 18.1426 1.17188 18.1426C0.75 18.1426 0.375 18.0957 0 18.0488C2.15625 19.4551 4.73438 20.252 7.54688 20.252C16.5938 20.252 21.5156 12.7988 21.5156 6.2832C21.5156 6.04883 21.5156 5.86133 21.5156 5.62695Z" fill="#F86464"/>
</svg>
