<?xml version="1.0" encoding="utf-8"?>
<!-- Generator: Adobe Illustrator 26.0.2, SVG Export Plug-In . SVG Version: 6.00 Build 0)  -->
<svg version="1.1" id="Layer_1" xmlns="http://www.w3.org/2000/svg" xmlns:xlink="http://www.w3.org/1999/xlink" x="0px" y="0px"
	 viewBox="0 0 199.3 50.8" style="enable-background:new 0 0 199.3 50.8;" xml:space="preserve">
<style type="text/css">
	.st0{fill:#302C35;}
	.st1{fill:#CCCCCC;}
	.st2{fill:#BA99FF;}
	.st3{fill:#C5A3FF;}
	.st4{fill:#8468FD;}
	.st5{fill:#624DBC;}
	.st6{opacity:0.27;fill:#624DBC;enable-background:new    ;}
	.st7{opacity:0.22;fill:#302C35;enable-background:new    ;}
</style>
<g>
	<g>
		<g>
			<g>
				<path class="st0" d="M72.8,33.6c-2.2,2.1-4.9,3.1-7.9,3.1c-7.8,0-11.1-5.4-11.1-10.8c0-5.5,3.5-11,11.1-11
					c2.8,0,5.5,1.1,7.7,3.2L70,20.6c-1.4-1.4-3.2-2-5.1-2c-5,0-7.2,3.8-7.2,7.3s2,7.1,7.2,7.1c1.8,0,3.9-0.8,5.3-2.1L72.8,33.6z"/>
				<path class="st0" d="M77.2,21.5l0.3,1.7c1.1-1.8,2.7-2.1,4.2-2.1s3,0.6,3.8,1.4l-1.6,3.2c-0.8-0.6-1.4-1-2.6-1
					c-1.9,0-3.7,1-3.7,3.7v7.8h-3.7V21.5H77.2z"/>
				<path class="st0" d="M102.6,21.5l-9,20.9h-4l2.8-6.4l-5.9-14.5h4.2l2.2,6.4l1.4,4.2l1.5-4.1l2.7-6.5L102.6,21.5L102.6,21.5z"/>
				<path class="st0" d="M104.5,42.4V21.5h3.4l0.2,2c1.1-1.6,3.1-2.4,4.8-2.4c4.5,0,7.6,3.4,7.6,7.7s-2.7,7.7-7.4,7.7
					c-1.6,0-3.9-0.5-4.9-2.1v7.9L104.5,42.4L104.5,42.4z M116.9,28.9c0-2.3-1.6-4.2-4.2-4.2s-4.2,1.9-4.2,4.2s1.7,4.2,4.2,4.2
					C115.2,33.1,116.9,31.2,116.9,28.9z"/>
				<path class="st0" d="M128.4,17.4v4.2h4.1v3.1h-4.1v6.4c0,1.4,0.8,2.1,1.9,2.1c0.6,0,1.2-0.2,1.8-0.5l1,3.1
					c-1.1,0.4-1.9,0.6-3,0.6c-3.2,0.1-5.3-1.7-5.3-5.4v-6.4H122v-3.1h2.8v-3.8L128.4,17.4z"/>
				<path class="st0" d="M149.8,28.9c0,4.2-2.9,7.7-7.7,7.7s-7.6-3.4-7.6-7.7c0-4.2,2.9-7.7,7.6-7.7S149.8,24.7,149.8,28.9z
					 M138.1,28.9c0,2.2,1.4,4.3,4,4.3c2.7,0,4-2.1,4-4.3s-1.6-4.4-4-4.4C139.5,24.6,138.1,26.7,138.1,28.9z"/>
				<path class="st0" d="M158,18.9h-6.6v-3.6c6,0,11.1,0,17.2,0v3.6H162v17.3h-4V18.9L158,18.9z"/>
				<path class="st0" d="M178.6,21.5h3.5v14.7h-3.4l-0.2-2.2c-0.8,1.7-3.1,2.6-4.8,2.6c-4.4,0-7.6-2.7-7.6-7.8s3.4-7.7,7.7-7.7
					c2,0,3.9,0.9,4.7,2.4L178.6,21.5z M169.8,28.9c0,2.8,1.9,4.5,4.4,4.5c5.7,0,5.7-8.9,0-8.9C171.7,24.4,169.8,26.1,169.8,28.9z"/>
				<path class="st0" d="M194.6,21.5h4.4v0.1l-4.8,7.1l5.1,7.4v0.1h-4.4l-3.2-4.9l-3.2,4.9h-4.4v-0.1l5.1-7.4l-4.8-7.1v-0.1h4.4
					l2.9,5L194.6,21.5z"/>
			</g>
		</g>
		<g>
			<path class="st1" d="M118.1,41.4l-1,1.2c-0.5-0.6-1.2-1-1.9-1c-1.3,0-2.3,1-2.3,2.3s1,2.3,2.3,2.3c0.7,0,1.4-0.3,1.9-0.9l1,1.1
				c-0.8,0.8-1.9,1.3-3,1.3c-2.2,0-3.9-1.7-3.9-3.8c0-2.2,1.7-3.8,4-3.8C116.2,40.2,117.3,40.7,118.1,41.4z"/>
			<path class="st1" d="M122.1,46.3l-0.6,1.5h-1.8l3.3-7.5h1.8l3.2,7.5h-1.8l-0.6-1.5H122.1z M123.8,42l-1.2,2.9h2.4L123.8,42z"/>
			<path class="st1" d="M135.2,46.2v1.5h-4.9v-7.5h1.7v6H135.2z"/>
			<path class="st1" d="M144.3,41.4l-1,1.2c-0.5-0.6-1.2-1-1.9-1c-1.3,0-2.3,1-2.3,2.3s1,2.3,2.3,2.3c0.7,0,1.4-0.3,1.9-0.9l1,1.1
				c-0.8,0.8-1.9,1.3-3,1.3c-2.2,0-3.9-1.7-3.9-3.8c0-2.2,1.7-3.8,4-3.8C142.4,40.2,143.5,40.7,144.3,41.4z"/>
			<path class="st1" d="M153.5,44.6c0,2-1.3,3.2-3.4,3.2c-2.1,0-3.4-1.2-3.4-3.2v-4.4h1.7v4.4c0,1.1,0.7,1.7,1.7,1.7
				s1.7-0.7,1.7-1.7v-4.4h1.7V44.6L153.5,44.6z"/>
			<path class="st1" d="M161.6,46.2v1.5h-4.9v-7.5h1.7v6H161.6z"/>
			<path class="st1" d="M165.7,46.3l-0.6,1.5h-1.8l3.3-7.5h1.8l3.2,7.5h-1.8l-0.6-1.5H165.7z M167.4,42l-1.2,2.9h2.4L167.4,42z"/>
			<path class="st1" d="M176.4,41.7v6.1h-1.7v-6.1h-2.3v-1.4h6.3v1.4H176.4z"/>
			<path class="st1" d="M188.3,44c0,2.2-1.7,3.8-4,3.8s-4-1.7-4-3.8c0-2.2,1.7-3.8,4-3.8S188.3,41.8,188.3,44z M182,44
				c0,1.3,1.1,2.3,2.3,2.3s2.3-1,2.3-2.3s-1-2.3-2.3-2.3S182,42.7,182,44z"/>
			<path class="st1" d="M194.4,45.6h-0.2h-1.6v2.1H191v-7.5h3.3c2,0,3.1,0.9,3.1,2.6c0,1.2-0.5,2-1.4,2.4l1.6,2.5h-1.9L194.4,45.6z
				 M194.3,44.2c0.9,0,1.5-0.4,1.5-1.3c0-0.8-0.5-1.2-1.5-1.2h-1.6v2.5H194.3L194.3,44.2z"/>
		</g>
	</g>
	<g>
		<g>
			<g>
				<polygon class="st2" points="25.3,10 17.6,17.6 10,25.3 2.4,32.9 2.3,17.6 4.6,15.3 0,10.7 3.1,7.6 7.7,12.3 10,10 12.3,7.7 
					7.7,3.1 10.7,0 15.3,4.7 17.6,2.4 				"/>
				<polygon class="st3" points="32.9,2.3 32.9,17.6 25.3,10 17.6,2.4 				"/>
				<polygon class="st4" points="32.8,48.2 17.6,48.2 9.9,40.5 2.4,32.9 10,25.3 17.6,32.9 17.6,32.9 25.2,40.5 				"/>
				<polygon class="st5" points="40.5,40.5 38.2,42.8 43.1,47.7 40,50.8 35.1,45.9 32.8,48.2 25.2,40.5 32.9,32.9 40.5,25.3 
					48.2,17.6 48.1,32.9 45.9,35.1 50.8,40 47.7,43.1 42.8,38.2 40.5,40.5 				"/>
			</g>
		</g>
		<polygon class="st6" points="2.4,32.9 12,27.3 10,25.3 		"/>
		<polygon class="st6" points="17.6,2.4 23.2,12.1 25.3,10 		"/>
		<polygon class="st7" points="32.8,48.2 27.5,38.3 25.2,40.5 		"/>
	</g>
</g>
</svg>
